#!OML:ASF F:\VICON\USERDATA\INSTALL\SteveWalk\SteveWalk.ASF
:FULLY-SPECIFIED
:DEGREES
347
root -0.0267517 15.9913 30.8167 19.0463 8.07247 4.5324
lowerback -15.6289 -3.44045 -6.1003
upperback -4.99445 -3.583 -0.114874
thorax 3.78314 -1.76503 2.64592
lowerneck -3.70218 -1.03458 -0.646854
upperneck 8.05687 -1.44275 1.2151
head 3.24763 -0.689491 0.450358
rclavicle -9.3093e-015 6.98231e-015
rhumerus -100.962 -38.9725 10.3843
rradius 10.7936
rwrist 59.2231
rhand -19.0512 -33.6122
rfingers 7.12502
rthumb 7.25571 -63.4679
lclavicle -9.3093e-015 6.98231e-015
lhumerus -8.21944 -8.08719 81.5918
lradius 48.9758
lwrist 9.27456
lhand -22.0006 -20.3719
lfingers 7.12502
lthumb 4.40815 9.56223
rfemur -50.2016 -7.35048 20.5895
rtibia 14.818
rfoot -9.66734 4.74086
rtoes -18.6029
lfemur -4.66645 5.25856 -25.1881
ltibia 20.7002
lfoot -24.5843 -10.1625
ltoes -22.5099
348
root -0.0374974 15.9673 31.036 19.0074 8.04859 4.30715
lowerback -15.4537 -3.44755 -5.91625
upperback -5.10978 -3.64757 0.101664
thorax 3.57711 -1.78994 2.77025
lowerneck -3.448 -0.976049 -0.635873
upperneck 7.77917 -1.33823 0.901348
head 3.0993 -0.650272 0.351705
rclavicle -5.77019e-015 8.44835e-016
rhumerus -101.879 -38.2787 12.4494
rradius 10.7507
rwrist 60.5859
rhand -19.2794 -33.1358
rfingers 7.12502
rthumb 7.03549 -62.9988
lclavicle -5.77019e-015 8.44835e-016
lhumerus -8.26261 -8.31756 81.5015
lradius 50.1736
lwrist 9.72141
lhand -22.406 -20.0792
lfingers 7.12502
lthumb 4.01667 9.86273
rfemur -50.8799 -6.44031 20.2007
rtibia 15.9965
rfoot -10.106 4.88686
rtoes -14.9283
lfemur -3.34627 4.75069 -24.7139
ltibia 19.5823
lfoot -23.5035 -10.2892
ltoes -22.8244
349
root -0.00889671 15.9637 31.2667 18.9241 8.81611 3.90726
lowerback -15.4412 -3.54061 -4.84451
upperback -5.09354 -3.93906 0.265824
thorax 3.56277 -1.9358 2.28563
lowerneck -3.66482 -0.894677 -0.694006
upperneck 7.72202 -1.20758 0.694898
head 3.11838 -0.594174 0.299149
rclavicle 2.48683e-014 -1.78906e-015
rhumerus -101.794 -37.9838 12.8283
rradius 10.6503
rwrist 60.5957
rhand -19.357 -33.362
rfingers 7.12502
rthumb 6.96051 -63.2275
lclavicle 2.48683e-014 -1.78906e-015
lhumerus -8.4373 -8.38509 81.4623
lradius 51.5968
lwrist 9.86743
lhand -22.8434 -19.7557
lfingers 7.12502
lthumb 3.59433 10.1937
rfemur -50.5798 -7.24227 20.889
rtibia 15.7602
rfoot -8.89238 7.27745
rtoes -6.90817
lfemur -2.5828 3.8398 -23.9396
ltibia 19.6438
lfoot -23.159 -10.3869
ltoes -24.2959
350
root 0.0221032 15.9505 31.5012 18.822 9.41466 3.63492
lowerback -15.5417 -3.64379 -3.91998
upperback -4.93466 -4.21288 0.396443
thorax 3.75521 -2.07743 1.84101
lowerneck -4.18989 -0.827878 -0.694649
upperneck 7.67503 -1.09388 0.434203
head 3.1994 -0.546558 0.217371
rclavicle 2.77336e-014 -1.78906e-014
rhumerus -101.868 -37.9868 13.3981
rradius 10.5712
rwrist 61.1235
rhand -18.8523 -34.207
rfingers 7.12502
rthumb 7.44767 -64.0559
lclavicle 2.77336e-014 -1.78906e-014
lhumerus -8.51243 -8.14446 81.3764
lradius 52.9678
lwrist 9.76872
lhand -23.2308 -19.571
lfingers 7.12502
lthumb 3.22018 10.3844
rfemur -50.2267 -7.6995 21.195
rtibia 15.9208
rfoot -9.8522 7.64265
rtoes 4.49613
lfemur -2.27208 2.91486 -23.3816
ltibia 19.8362
lfoot -21.7739 -12.0962
ltoes -21.7143
351
root 0.0131046 15.9148 31.7389 18.7787 9.25213 3.58781
lowerback -15.3779 -3.65643 -3.84362
upperback -5.14529 -4.25679 0.499963
thorax 3.45047 -2.09248 1.91516
lowerneck -3.54199 -0.754946 -0.607392
upperneck 7.28798 -0.985259 0.171063
head 2.94083 -0.500118 0.124339
rclavicle 7.58177e-015 -1.33186e-014
rhumerus -99.5094 -37.7918 9.88177
rradius 10.8299
rwrist 58.3017
rhand -16.174 -25.2842
rfingers 7.12502
rthumb 10.0323 -55.0251
lclavicle 7.58177e-015 -1.33186e-014
lhumerus -9.16631 -8.00719 81.2864
lradius 54.1162
lwrist 9.52643
lhand -23.6113 -20.0756
lfingers 7.12502
lthumb 2.85274 9.88506
rfemur -49.7445 -5.84666 19.8195
rtibia 16.38
rfoot -13.9085 5.2399
rtoes -1.17777
lfemur -1.42075 1.96978 -23.1164
ltibia 20.2635
lfoot -20.6046 -12.3833
ltoes -20.3545
352
root 0.0162305 15.8855 31.9771 18.7891 9.44507 3.238
lowerback -15.5424 -3.69624 -3.21671
upperback -5.15975 -4.40342 0.657108
thorax 3.50112 -2.16629 1.69236
lowerneck -3.40559 -0.704784 -0.525081
upperneck 7.07079 -0.908082 -0.0480493
head 2.83935 -0.466846 0.0434136
rclavicle 2.08724e-015 1.27222e-014
rhumerus -96.7195 -37.8861 5.48461
rradius 11.1841
rwrist 54.7133
rhand -16.3986 -27.8014
rfingers 7.12502
rthumb 9.81559 -57.5526
lclavicle 2.08724e-015 1.27222e-014
lhumerus -9.49561 -7.91672 81.1086
lradius 55.2473
lwrist 9.46883
lhand -23.8864 -20.5165
lfingers 7.12502
lthumb 2.5871 9.44759
rfemur -49.464 -4.78123 19.304
rtibia 17.0948
rfoot -18.6267 3.98271
rtoes -1.2349
lfemur -0.926981 1.17995 -22.4981
ltibia 20.9614
lfoot -19.4806 -12.9305
ltoes -19.504
353
root 0.00328556 15.8369 32.222 18.8783 8.86436 3.1022
lowerback -15.7747 -3.60245 -3.16822
upperback -5.22326 -4.28635 0.804211
thorax 3.55907 -2.1077 1.83121
lowerneck -3.28154 -0.60954 -0.595626
upperneck 6.85165 -0.767806 -0.184871
head 2.74144 -0.403101 0.0174905
rclavicle -5.14076e-014 -1.27222e-014
rhumerus -95.8582 -37.8072 4.55139
rradius 11.2719
rwrist 54.1386
rhand -17.2269 -34.9524
rfingers 7.12502
rthumb 9.01643 -64.7397
lclavicle -5.14076e-014 -1.27222e-014
lhumerus -10.1195 -7.82674 80.953
lradius 56.5908
lwrist 9.59001
lhand -23.7491 -20.3123
lfingers 7.12502
lthumb 2.71964 9.65006
rfemur -49.4843 -2.8278 18.2986
rtibia 18.1452
rfoot -17.4519 2.76463
rtoes -2.51184
lfemur -0.623714 1.01724 -22.3418
ltibia 21.7904
lfoot -18.7936 -12.8262
ltoes -21.7297
354
root 0.0141031 15.8039 32.4728 18.7214 8.74656 2.90551
lowerback -15.7583 -3.55048 -2.65041
upperback -5.29611 -4.30283 0.907977
thorax 3.44685 -2.11517 1.65045
lowerneck -3.0589 -0.489585 -0.557428
upperneck 6.57883 -0.59658 -0.412368
head 2.60702 -0.323368 -0.0547838
rclavicle 6.68227e-014 1.19271e-014
rhumerus -97.7773 -37.4338 8.40181
rradius 10.9655
rwrist 57.5049
rhand -17.4296 -33.6811
rfingers 7.12502
rthumb 8.82079 -63.4767
lclavicle 6.68227e-014 1.19271e-014
lhumerus -10.8877 -7.80814 80.8507
lradius 57.691
lwrist 9.68859
lhand -23.522 -20.3267
lfingers 7.12502
lthumb 2.93903 9.63274
rfemur -49.3714 -2.69938 18.663
rtibia 19.6527
rfoot -14.7317 2.61929
rtoes -9.75734
lfemur -0.0551594 0.588977 -22.0702
ltibia 22.5793
lfoot -17.2346 -13.2782
ltoes -20.6143
355
root 0.044083 15.7919 32.7264 18.2966 9.1946 2.43034
lowerback -15.8518 -3.56762 -1.55265
upperback -5.00036 -4.49966 1.07159
thorax 3.75259 -2.21789 1.15353
lowerneck -3.50051 -0.40977 -0.519539
upperneck 6.47518 -0.471468 -0.674711
head 2.65351 -0.26873 -0.141967
rclavicle 3.48743e-014 -1.63003e-014
rhumerus -99.1542 -37.4943 11.2073
rradius 10.7014
rwrist 60.136
rhand -18.5434 -32.6304
rfingers 7.12502
rthumb 7.74587 -62.4685
lclavicle 3.48743e-014 -1.63003e-014
lhumerus -11.1789 -7.60548 80.8087
lradius 58.5676
lwrist 9.70187
lhand -23.4702 -20.6305
lfingers 7.12502
lthumb 2.98905 9.32828
rfemur -49.1014 -3.88877 20.1175
rtibia 21.3868
rfoot -11.8826 2.38738
rtoes -25.7393
lfemur 0.73261 -0.232231 -21.4242
ltibia 23.4104
lfoot -14.9876 -13.9745
ltoes -16.9002
356
root 0.0194499 15.7605 32.9842 18.5797 8.12508 3.25569
lowerback -15.5041 -3.47388 -2.63351
upperback -5.52462 -4.21698 0.976606
thorax 3.0699 -2.06774 1.75124
lowerneck -3.68951 -0.333379 -0.511016
upperneck 7.05196 -0.341798 -0.982155
head 2.88332 -0.217211 -0.239806
rclavicle -2.39194e-014 4.77083e-015
rhumerus -96.2132 -37.1677 6.8647
rradius 10.9993
rwrist 56.0496
rhand -16.0147 -27.1859
rfingers 7.12502
rthumb 10.186 -56.9193
lclavicle -2.39194e-014 4.77083e-015
lhumerus -12.74 -7.52344 80.9614
lradius 59.7512
lwrist 9.60087
lhand -23.2535 -20.7938
lfingers 7.12502
lthumb 3.19831 9.16195
rfemur -49.7868 -2.50906 18.6969
rtibia 23.1726
rfoot -8.51766 0.909773
rtoes -40.0806
lfemur 0.764588 -0.399043 -22.5084
ltibia 24.4314
lfoot -12.6985 -14.0935
ltoes -14.6136
357
root 0.0288256 15.7617 33.2425 18.6687 8.11186 2.95318
lowerback -15.8999 -3.50176 -2.00977
upperback -5.62954 -4.34278 1.12528
thorax 3.14396 -2.13174 1.51599
lowerneck -3.49422 -0.12312 -0.103988
upperneck 7.0061 -0.0436921 -1.59679
head 2.83321 -0.0782707 -0.496458
rclavicle -3.80787e-014 7.95139e-016
rhumerus -96.0662 -37.107 7.22229
rradius 11.0701
rwrist 55.8717
rhand -15.4178 -26.318
rfingers 7.12502
rthumb 10.7618 -56.0223
lclavicle -3.80787e-014 7.95139e-016
lhumerus -13.7261 -7.3062 80.8136
lradius 60.6682
lwrist 9.62849
lhand -22.9905 -21.0513
lfingers 7.12502
lthumb 3.45223 8.90053
rfemur -50.2155 -2.43719 19.0208
rtibia 24.9296
rfoot -6.93923 1.97261
rtoes -38.0147
lfemur 0.583379 -0.771364 -22.1755
ltibia 25.864
lfoot -10.7622 -14.4232
ltoes -15.4209
358
root 0.05811 15.7668 33.4919 18.5536 8.54461 1.92127
lowerback -16.0422 -3.38984 -0.325007
upperback -5.57885 -4.46556 1.473
thorax 3.18311 -2.19955 0.904419
lowerneck -3.88767 -0.019505 0.05367
upperneck 7.0147 0.129999 -2.18127
head 2.91445 -0.00969844 -0.707543
rclavicle -1.60247e-014 2.46493e-014
rhumerus -95.8635 -37.3155 7.50195
rradius 11.2092
rwrist 55.1618
rhand -16.1254 -29.2706
rfingers 7.12502
rthumb 10.0792 -59.0092
lclavicle -1.60247e-014 2.46493e-014
lhumerus -14.2977 -6.93559 80.9598
lradius 61.3056
lwrist 9.53564
lhand -22.1109 -21.3816
lfingers 7.12502
lthumb 4.30167 8.55467
rfemur -50.3458 -2.7481 20.28
rtibia 26.6361
rfoot -6.2978 3.2111
rtoes -33.1259
lfemur 0.181835 -1.20803 -21.0056
ltibia 27.8784
lfoot -8.54059 -14.7429
ltoes -16.3996
359
root 0.0617727 15.7516 33.7354 18.7094 8.17561 1.614
lowerback -16.3344 -3.24015 0.151847
upperback -5.62376 -4.35096 1.66423
thorax 3.26829 -2.14323 0.84462
lowerneck -4.00574 0.0693784 0.084977
upperneck 6.91221 0.276801 -2.60706
head 2.90647 0.0493986 -0.845217
rclavicle -6.05082e-014 -1.15295e-014
rhumerus -94.2345 -37.5185 5.25256
rradius 11.366
rwrist 53.3053
rhand -16.546 -32.3422
rfingers 7.12502
rthumb 9.6734 -62.1
lclavicle -6.05082e-014 -1.15295e-014
lhumerus -15.3868 -6.16215 81.2689
lradius 62.1894
lwrist 9.06588
lhand -20.987 -21.4839
lfingers 7.12502
lthumb 5.38687 8.42764
rfemur -50.6739 -1.86782 20.1996
rtibia 28.2364
rfoot -5.38343 3.08151
rtoes -30.1643
lfemur -0.861912 -1.17532 -20.7675
ltibia 30.5099
lfoot -5.58151 -14.833
ltoes -16.4525
360
root 0.0686647 15.7523 33.9854 18.7983 8.15079 1.15119
lowerback -16.6003 -3.13994 0.898159
upperback -5.66033 -4.34759 1.86944
thorax 3.33156 -2.14282 0.629455
lowerneck -4.15508 0.151884 0.0911245
upperneck 6.79717 0.406036 -2.89167
head 2.89972 0.103895 -0.933549
rclavicle 9.69852e-015 -7.95139e-015
rhumerus -90.3719 -37.811 -1.07072
rradius 11.5561
rwrist 50.1552
rhand -15.2194 -28.7654
rfingers 7.12502
rthumb 10.9531 -58.4597
lclavicle 9.69852e-015 -7.95139e-015
lhumerus -16.5496 -5.59938 81.5003
lradius 62.9449
lwrist 8.78988
lhand -21.255 -21.3294
lfingers 7.12502
lthumb 5.12813 8.58858
rfemur -50.8009 -1.70044 20.7589
rtibia 29.8415
rfoot -4.86731 2.88913
rtoes -23.9157
lfemur -2.26682 -1.10981 -20.2317
ltibia 33.5877
lfoot -1.52742 -15.0407
ltoes -13.5259
